<svg width="206" height="122" viewBox="0 0 206 122" fill="none" xmlns="http://www.w3.org/2000/svg">
<path d="M205.691 14.6096C205.635 11.9613 204.956 9.36347 203.708 7.02668C202.461 4.68988 200.68 2.6799 198.511 1.15964C196.511 -0.110358 194.591 -0.300355 193.191 0.419645C184.741 4.65964 125.361 42.7296 121.571 44.6096H121.521C121.121 44.8747 120.8 45.2413 120.589 45.6719C120.378 46.1025 120.285 46.5815 120.321 47.0596C120.344 48.3946 120.683 49.705 121.311 50.8835C121.938 52.0621 122.836 53.0751 123.931 53.8396C124.31 54.1354 124.761 54.3247 125.237 54.388C125.713 54.4513 126.198 54.3862 126.641 54.1996H126.701C132.701 50.8896 191.311 25.9096 203.291 19.4896C204.701 18.7096 205.611 17.0296 205.691 14.6096Z" fill="#35495E"/>
<path opacity="0.1" d="M203.361 6.39964C202.186 4.29083 200.523 2.49407 198.511 1.15964C196.511 -0.110357 194.611 -0.300357 193.211 0.409643L193.031 0.509642C185.321 4.44964 141.131 32.6396 126.261 41.8096L126.161 41.8696L125.561 42.2396L125.381 42.3496L125.041 42.5596L124.641 42.7996C123.071 43.7996 122.011 44.3796 121.641 44.5896H121.591C121.464 44.6651 121.346 44.7558 121.241 44.8596C120.96 45.1475 120.74 45.4889 120.594 45.8634C120.448 46.2378 120.379 46.6379 120.391 47.0396C120.371 47.3226 120.371 47.6067 120.391 47.8896C120.391 47.9996 120.391 48.1096 120.441 48.2196C120.491 48.3296 120.501 48.5596 120.541 48.7396C120.581 48.9196 120.611 49.0196 120.651 49.1496C120.691 49.2796 120.751 49.4796 120.811 49.6396C120.871 49.7996 120.901 49.8796 120.941 49.9996V50.0596L203.361 6.39964Z" fill="black"/>
<path d="M123.921 53.8496C122.832 53.0869 121.937 52.0784 121.31 50.9057C120.683 49.733 120.341 48.4292 120.311 47.0996C120.401 44.6596 122.141 43.7196 124.211 45.0096C125.302 45.7734 126.197 46.7835 126.824 47.958C127.452 49.1325 127.793 50.4384 127.821 51.7696C127.741 54.2096 125.991 55.1596 123.921 53.8496Z" fill="#35495E"/>
<path d="M106.171 55.4896C106.194 56.5111 106.457 57.5128 106.938 58.4143C107.419 59.3157 108.105 60.0916 108.941 60.6796C109.231 60.904 109.576 61.0472 109.939 61.0947C110.303 61.1421 110.673 61.0921 111.011 60.9496V60.9496L125.371 53.2996C125.676 53.0971 125.922 52.8174 126.083 52.4889C126.245 52.1604 126.317 51.7949 126.291 51.4296C126.269 50.4078 126.007 49.4056 125.526 48.5039C125.044 47.6023 124.358 46.8266 123.521 46.2396C123.232 46.0127 122.888 45.867 122.524 45.8178C122.16 45.7686 121.79 45.8176 121.451 45.9596V45.9596L107.091 53.6096C106.784 53.813 106.537 54.0944 106.376 54.4248C106.214 54.7552 106.143 55.1228 106.171 55.4896Z" fill="#37474F"/>
<path d="M107.111 53.6096C106.801 53.8105 106.55 54.0909 106.385 54.4215C106.219 54.7521 106.145 55.1209 106.171 55.4896C106.166 56.2486 106.315 57.0006 106.611 57.6996L125.131 47.8196C124.711 47.1926 124.171 46.6555 123.541 46.2396C123.252 46.0127 122.908 45.867 122.544 45.8178C122.18 45.7686 121.81 45.8176 121.471 45.9596L107.111 53.6096Z" fill="#263238"/>
<path d="M124.601 68.2297C124.601 59.0297 118.521 49.8296 106.351 42.8096C82.031 28.7596 42.591 28.7596 18.261 42.8096C6.10099 49.8096 0.0209961 59.0297 0.0209961 68.2297V85.2297C0.0209961 94.4297 6.101 103.63 18.271 110.66C42.591 124.66 82.031 124.66 106.351 110.66C118.521 103.66 124.601 94.4297 124.601 85.2297V68.2297ZM21.251 48.0196C32.111 41.7496 46.681 38.2996 62.251 38.2996C77.821 38.2996 92.421 41.7496 103.251 48.0196C113.071 53.6896 118.481 60.8696 118.481 68.2396C118.481 75.6096 113.071 82.7796 103.251 88.4496C92.391 94.7196 77.821 98.1696 62.251 98.1696C46.681 98.1696 32.081 94.7196 21.251 88.4496C11.421 82.7796 6.021 75.5996 6.021 68.2396C6.021 60.8796 11.451 53.6896 21.251 48.0196Z" fill="#35495E"/>
<path opacity="0.3" d="M18.2507 93.6596C42.5807 107.71 82.0107 107.71 106.341 93.6596C130.671 79.6096 130.671 56.8496 106.341 42.8096C82.0107 28.7696 42.5807 28.7596 18.2507 42.8096C-6.07926 56.8596 -6.05926 79.6196 18.2507 93.6596ZM6.03074 68.2396C6.03074 60.8696 11.4407 53.6896 21.2607 48.0196C32.1307 41.7496 46.7007 38.2996 62.2607 38.2996C77.8207 38.2996 92.4307 41.7496 103.261 48.0196C113.081 53.6896 118.491 60.8696 118.491 68.2396C118.491 75.6096 113.081 82.7796 103.261 88.4496C92.3907 94.7196 77.8207 98.1696 62.2607 98.1696C46.7007 98.1696 32.0907 94.7196 21.2607 88.4496C11.4507 82.7796 6.04074 75.5996 6.04074 68.2396H6.03074Z" fill="white"/>
<path d="M6.04102 68.2297C6.0765 71.2261 6.91571 74.1582 8.47102 76.7196C10.941 72.4396 15.291 68.4297 21.281 64.9797C32.131 58.6997 46.711 55.2496 62.281 55.2496C77.851 55.2496 92.451 58.6997 103.281 64.9797C109.281 68.4297 113.621 72.4396 116.101 76.7196C117.649 74.1554 118.484 71.2246 118.521 68.2297C118.521 60.8697 113.111 53.6896 103.281 48.0196C92.431 41.7496 77.851 38.2996 62.281 38.2996C46.711 38.2996 32.101 41.7496 21.281 48.0196C11.451 53.6896 6.04102 60.8697 6.04102 68.2297Z" fill="#35495E"/>
<path opacity="0.1" d="M6.04102 68.2297C6.0765 71.2261 6.91571 74.1582 8.47102 76.7196C10.941 72.4396 15.291 68.4297 21.281 64.9797C32.131 58.6997 46.711 55.2496 62.281 55.2496C77.851 55.2496 92.451 58.6997 103.281 64.9797C109.281 68.4297 113.621 72.4396 116.101 76.7196C117.649 74.1554 118.484 71.2246 118.521 68.2297C118.521 60.8697 113.111 53.6896 103.281 48.0196C92.431 41.7496 77.851 38.2996 62.281 38.2996C46.711 38.2996 32.101 41.7496 21.281 48.0196C11.451 53.6896 6.04102 60.8697 6.04102 68.2297Z" fill="black"/>
<path opacity="0.4" d="M21.251 55.6996C32.121 49.4296 46.691 45.9696 62.251 45.9696C77.811 45.9696 92.421 49.4296 103.251 55.6996C111.351 60.3796 116.441 66.0796 117.981 72.0696C116.441 78.0696 111.351 83.7696 103.251 88.4496C92.381 94.7196 77.811 98.1696 62.251 98.1696C46.691 98.1696 32.081 94.7196 21.251 88.4496C13.151 83.7696 8.061 78.0596 6.521 72.0696C8.081 66.0796 13.171 60.3796 21.251 55.6996Z" fill="white"/>
<path opacity="0.1" d="M47.6309 103.16V120.16C36.8709 118.66 26.6309 115.49 18.2709 110.64C6.10087 103.64 0.020869 94.4096 0.020869 85.1996V68.1996C0.0251301 66.3253 0.273886 64.4596 0.760859 62.6497V62.6497C-2.23914 73.5997 3.64086 85.1897 18.2509 93.6497C26.6709 98.5197 36.8709 101.69 47.6309 103.16Z" fill="black"/>
</svg>
